<svg xmlns="http://www.w3.org/2000/svg" viewBox="0 0 714 536" role="img" aria-label="FLOW KIT">
<rect width="714" height="536" fill="#0B0B0F"/>
<rect x="54" y="54" width="20" height="20" fill="#D07A52"/>
<rect x="56" y="56" width="16" height="16" fill="none" stroke="#F4B48F" stroke-width="1" opacity="0.55"/>
<rect x="82" y="54" width="20" height="20" fill="#D07A52"/>
<rect x="84" y="56" width="16" height="16" fill="none" stroke="#F4B48F" stroke-width="1" opacity="0.55"/>
<rect x="110" y="54" width="20" height="20" fill="#D07A52"/>
<rect x="112" y="56" width="16" height="16" fill="none" stroke="#F4B48F" stroke-width="1" opacity="0.55"/>
<rect x="138" y="54" width="20" height="20" fill="#D07A52"/>
<rect x="140" y="56" width="16" height="16" fill="none" stroke="#F4B48F" stroke-width="1" opacity="0.55"/>
<rect x="166" y="54" width="20" height="20" fill="#D07A52"/>
<rect x="168" y="56" width="16" height="16" fill="none" stroke="#F4B48F" stroke-width="1" opacity="0.55"/>
<rect x="54" y="82" width="20" height="20" fill="#D07A52"/>
<rect x="56" y="84" width="16" height="16" fill="none" stroke="#F4B48F" stroke-width="1" opacity="0.55"/>
<rect x="54" y="110" width="20" height="20" fill="#D07A52"/>
<rect x="56" y="112" width="16" height="16" fill="none" stroke="#F4B48F" stroke-width="1" opacity="0.55"/>
<rect x="54" y="138" width="20" height="20" fill="#D07A52"/>
<rect x="56" y="140" width="16" height="16" fill="none" stroke="#F4B48F" stroke-width="1" opacity="0.55"/>
<rect x="82" y="138" width="20" height="20" fill="#D07A52"/>
<rect x="84" y="140" width="16" height="16" fill="none" stroke="#F4B48F" stroke-width="1" opacity="0.55"/>
<rect x="110" y="138" width="20" height="20" fill="#D07A52"/>
<rect x="112" y="140" width="16" height="16" fill="none" stroke="#F4B48F" stroke-width="1" opacity="0.55"/>
<rect x="138" y="138" width="20" height="20" fill="#D07A52"/>
<rect x="140" y="140" width="16" height="16" fill="none" stroke="#F4B48F" stroke-width="1" opacity="0.55"/>
<rect x="54" y="166" width="20" height="20" fill="#D07A52"/>
<rect x="56" y="168" width="16" height="16" fill="none" stroke="#F4B48F" stroke-width="1" opacity="0.55"/>
<rect x="54" y="194" width="20" height="20" fill="#D07A52"/>
<rect x="56" y="196" width="16" height="16" fill="none" stroke="#F4B48F" stroke-width="1" opacity="0.55"/>
<rect x="54" y="222" width="20" height="20" fill="#D07A52"/>
<rect x="56" y="224" width="16" height="16" fill="none" stroke="#F4B48F" stroke-width="1" opacity="0.55"/>
<rect x="212" y="54" width="20" height="20" fill="#D07A52"/>
<rect x="214" y="56" width="16" height="16" fill="none" stroke="#F4B48F" stroke-width="1" opacity="0.55"/>
<rect x="212" y="82" width="20" height="20" fill="#D07A52"/>
<rect x="214" y="84" width="16" height="16" fill="none" stroke="#F4B48F" stroke-width="1" opacity="0.55"/>
<rect x="212" y="110" width="20" height="20" fill="#D07A52"/>
<rect x="214" y="112" width="16" height="16" fill="none" stroke="#F4B48F" stroke-width="1" opacity="0.55"/>
<rect x="212" y="138" width="20" height="20" fill="#D07A52"/>
<rect x="214" y="140" width="16" height="16" fill="none" stroke="#F4B48F" stroke-width="1" opacity="0.55"/>
<rect x="212" y="166" width="20" height="20" fill="#D07A52"/>
<rect x="214" y="168" width="16" height="16" fill="none" stroke="#F4B48F" stroke-width="1" opacity="0.55"/>
<rect x="212" y="194" width="20" height="20" fill="#D07A52"/>
<rect x="214" y="196" width="16" height="16" fill="none" stroke="#F4B48F" stroke-width="1" opacity="0.55"/>
<rect x="212" y="222" width="20" height="20" fill="#D07A52"/>
<rect x="214" y="224" width="16" height="16" fill="none" stroke="#F4B48F" stroke-width="1" opacity="0.55"/>
<rect x="240" y="222" width="20" height="20" fill="#D07A52"/>
<rect x="242" y="224" width="16" height="16" fill="none" stroke="#F4B48F" stroke-width="1" opacity="0.55"/>
<rect x="268" y="222" width="20" height="20" fill="#D07A52"/>
<rect x="270" y="224" width="16" height="16" fill="none" stroke="#F4B48F" stroke-width="1" opacity="0.55"/>
<rect x="296" y="222" width="20" height="20" fill="#D07A52"/>
<rect x="298" y="224" width="16" height="16" fill="none" stroke="#F4B48F" stroke-width="1" opacity="0.55"/>
<rect x="324" y="222" width="20" height="20" fill="#D07A52"/>
<rect x="326" y="224" width="16" height="16" fill="none" stroke="#F4B48F" stroke-width="1" opacity="0.55"/>
<rect x="398" y="54" width="20" height="20" fill="#D07A52"/>
<rect x="400" y="56" width="16" height="16" fill="none" stroke="#F4B48F" stroke-width="1" opacity="0.55"/>
<rect x="426" y="54" width="20" height="20" fill="#D07A52"/>
<rect x="428" y="56" width="16" height="16" fill="none" stroke="#F4B48F" stroke-width="1" opacity="0.55"/>
<rect x="454" y="54" width="20" height="20" fill="#D07A52"/>
<rect x="456" y="56" width="16" height="16" fill="none" stroke="#F4B48F" stroke-width="1" opacity="0.55"/>
<rect x="370" y="82" width="20" height="20" fill="#D07A52"/>
<rect x="372" y="84" width="16" height="16" fill="none" stroke="#F4B48F" stroke-width="1" opacity="0.55"/>
<rect x="482" y="82" width="20" height="20" fill="#D07A52"/>
<rect x="484" y="84" width="16" height="16" fill="none" stroke="#F4B48F" stroke-width="1" opacity="0.55"/>
<rect x="370" y="110" width="20" height="20" fill="#D07A52"/>
<rect x="372" y="112" width="16" height="16" fill="none" stroke="#F4B48F" stroke-width="1" opacity="0.55"/>
<rect x="482" y="110" width="20" height="20" fill="#D07A52"/>
<rect x="484" y="112" width="16" height="16" fill="none" stroke="#F4B48F" stroke-width="1" opacity="0.55"/>
<rect x="370" y="138" width="20" height="20" fill="#D07A52"/>
<rect x="372" y="140" width="16" height="16" fill="none" stroke="#F4B48F" stroke-width="1" opacity="0.55"/>
<rect x="482" y="138" width="20" height="20" fill="#D07A52"/>
<rect x="484" y="140" width="16" height="16" fill="none" stroke="#F4B48F" stroke-width="1" opacity="0.55"/>
<rect x="370" y="166" width="20" height="20" fill="#D07A52"/>
<rect x="372" y="168" width="16" height="16" fill="none" stroke="#F4B48F" stroke-width="1" opacity="0.55"/>
<rect x="482" y="166" width="20" height="20" fill="#D07A52"/>
<rect x="484" y="168" width="16" height="16" fill="none" stroke="#F4B48F" stroke-width="1" opacity="0.55"/>
<rect x="370" y="194" width="20" height="20" fill="#D07A52"/>
<rect x="372" y="196" width="16" height="16" fill="none" stroke="#F4B48F" stroke-width="1" opacity="0.55"/>
<rect x="482" y="194" width="20" height="20" fill="#D07A52"/>
<rect x="484" y="196" width="16" height="16" fill="none" stroke="#F4B48F" stroke-width="1" opacity="0.55"/>
<rect x="398" y="222" width="20" height="20" fill="#D07A52"/>
<rect x="400" y="224" width="16" height="16" fill="none" stroke="#F4B48F" stroke-width="1" opacity="0.55"/>
<rect x="426" y="222" width="20" height="20" fill="#D07A52"/>
<rect x="428" y="224" width="16" height="16" fill="none" stroke="#F4B48F" stroke-width="1" opacity="0.55"/>
<rect x="454" y="222" width="20" height="20" fill="#D07A52"/>
<rect x="456" y="224" width="16" height="16" fill="none" stroke="#F4B48F" stroke-width="1" opacity="0.55"/>
<rect x="528" y="54" width="20" height="20" fill="#D07A52"/>
<rect x="530" y="56" width="16" height="16" fill="none" stroke="#F4B48F" stroke-width="1" opacity="0.55"/>
<rect x="640" y="54" width="20" height="20" fill="#D07A52"/>
<rect x="642" y="56" width="16" height="16" fill="none" stroke="#F4B48F" stroke-width="1" opacity="0.55"/>
<rect x="528" y="82" width="20" height="20" fill="#D07A52"/>
<rect x="530" y="84" width="16" height="16" fill="none" stroke="#F4B48F" stroke-width="1" opacity="0.55"/>
<rect x="640" y="82" width="20" height="20" fill="#D07A52"/>
<rect x="642" y="84" width="16" height="16" fill="none" stroke="#F4B48F" stroke-width="1" opacity="0.55"/>
<rect x="528" y="110" width="20" height="20" fill="#D07A52"/>
<rect x="530" y="112" width="16" height="16" fill="none" stroke="#F4B48F" stroke-width="1" opacity="0.55"/>
<rect x="640" y="110" width="20" height="20" fill="#D07A52"/>
<rect x="642" y="112" width="16" height="16" fill="none" stroke="#F4B48F" stroke-width="1" opacity="0.55"/>
<rect x="528" y="138" width="20" height="20" fill="#D07A52"/>
<rect x="530" y="140" width="16" height="16" fill="none" stroke="#F4B48F" stroke-width="1" opacity="0.55"/>
<rect x="584" y="138" width="20" height="20" fill="#D07A52"/>
<rect x="586" y="140" width="16" height="16" fill="none" stroke="#F4B48F" stroke-width="1" opacity="0.55"/>
<rect x="640" y="138" width="20" height="20" fill="#D07A52"/>
<rect x="642" y="140" width="16" height="16" fill="none" stroke="#F4B48F" stroke-width="1" opacity="0.55"/>
<rect x="528" y="166" width="20" height="20" fill="#D07A52"/>
<rect x="530" y="168" width="16" height="16" fill="none" stroke="#F4B48F" stroke-width="1" opacity="0.55"/>
<rect x="584" y="166" width="20" height="20" fill="#D07A52"/>
<rect x="586" y="168" width="16" height="16" fill="none" stroke="#F4B48F" stroke-width="1" opacity="0.55"/>
<rect x="640" y="166" width="20" height="20" fill="#D07A52"/>
<rect x="642" y="168" width="16" height="16" fill="none" stroke="#F4B48F" stroke-width="1" opacity="0.55"/>
<rect x="528" y="194" width="20" height="20" fill="#D07A52"/>
<rect x="530" y="196" width="16" height="16" fill="none" stroke="#F4B48F" stroke-width="1" opacity="0.55"/>
<rect x="556" y="194" width="20" height="20" fill="#D07A52"/>
<rect x="558" y="196" width="16" height="16" fill="none" stroke="#F4B48F" stroke-width="1" opacity="0.55"/>
<rect x="612" y="194" width="20" height="20" fill="#D07A52"/>
<rect x="614" y="196" width="16" height="16" fill="none" stroke="#F4B48F" stroke-width="1" opacity="0.55"/>
<rect x="640" y="194" width="20" height="20" fill="#D07A52"/>
<rect x="642" y="196" width="16" height="16" fill="none" stroke="#F4B48F" stroke-width="1" opacity="0.55"/>
<rect x="528" y="222" width="20" height="20" fill="#D07A52"/>
<rect x="530" y="224" width="16" height="16" fill="none" stroke="#F4B48F" stroke-width="1" opacity="0.55"/>
<rect x="640" y="222" width="20" height="20" fill="#D07A52"/>
<rect x="642" y="224" width="16" height="16" fill="none" stroke="#F4B48F" stroke-width="1" opacity="0.55"/>
<rect x="133" y="294" width="20" height="20" fill="#D07A52"/>
<rect x="135" y="296" width="16" height="16" fill="none" stroke="#F4B48F" stroke-width="1" opacity="0.55"/>
<rect x="245" y="294" width="20" height="20" fill="#D07A52"/>
<rect x="247" y="296" width="16" height="16" fill="none" stroke="#F4B48F" stroke-width="1" opacity="0.55"/>
<rect x="133" y="322" width="20" height="20" fill="#D07A52"/>
<rect x="135" y="324" width="16" height="16" fill="none" stroke="#F4B48F" stroke-width="1" opacity="0.55"/>
<rect x="217" y="322" width="20" height="20" fill="#D07A52"/>
<rect x="219" y="324" width="16" height="16" fill="none" stroke="#F4B48F" stroke-width="1" opacity="0.55"/>
<rect x="133" y="350" width="20" height="20" fill="#D07A52"/>
<rect x="135" y="352" width="16" height="16" fill="none" stroke="#F4B48F" stroke-width="1" opacity="0.55"/>
<rect x="189" y="350" width="20" height="20" fill="#D07A52"/>
<rect x="191" y="352" width="16" height="16" fill="none" stroke="#F4B48F" stroke-width="1" opacity="0.55"/>
<rect x="133" y="378" width="20" height="20" fill="#D07A52"/>
<rect x="135" y="380" width="16" height="16" fill="none" stroke="#F4B48F" stroke-width="1" opacity="0.55"/>
<rect x="161" y="378" width="20" height="20" fill="#D07A52"/>
<rect x="163" y="380" width="16" height="16" fill="none" stroke="#F4B48F" stroke-width="1" opacity="0.55"/>
<rect x="133" y="406" width="20" height="20" fill="#D07A52"/>
<rect x="135" y="408" width="16" height="16" fill="none" stroke="#F4B48F" stroke-width="1" opacity="0.55"/>
<rect x="189" y="406" width="20" height="20" fill="#D07A52"/>
<rect x="191" y="408" width="16" height="16" fill="none" stroke="#F4B48F" stroke-width="1" opacity="0.55"/>
<rect x="133" y="434" width="20" height="20" fill="#D07A52"/>
<rect x="135" y="436" width="16" height="16" fill="none" stroke="#F4B48F" stroke-width="1" opacity="0.55"/>
<rect x="217" y="434" width="20" height="20" fill="#D07A52"/>
<rect x="219" y="436" width="16" height="16" fill="none" stroke="#F4B48F" stroke-width="1" opacity="0.55"/>
<rect x="133" y="462" width="20" height="20" fill="#D07A52"/>
<rect x="135" y="464" width="16" height="16" fill="none" stroke="#F4B48F" stroke-width="1" opacity="0.55"/>
<rect x="245" y="462" width="20" height="20" fill="#D07A52"/>
<rect x="247" y="464" width="16" height="16" fill="none" stroke="#F4B48F" stroke-width="1" opacity="0.55"/>
<rect x="291" y="294" width="20" height="20" fill="#D07A52"/>
<rect x="293" y="296" width="16" height="16" fill="none" stroke="#F4B48F" stroke-width="1" opacity="0.55"/>
<rect x="319" y="294" width="20" height="20" fill="#D07A52"/>
<rect x="321" y="296" width="16" height="16" fill="none" stroke="#F4B48F" stroke-width="1" opacity="0.55"/>
<rect x="347" y="294" width="20" height="20" fill="#D07A52"/>
<rect x="349" y="296" width="16" height="16" fill="none" stroke="#F4B48F" stroke-width="1" opacity="0.55"/>
<rect x="375" y="294" width="20" height="20" fill="#D07A52"/>
<rect x="377" y="296" width="16" height="16" fill="none" stroke="#F4B48F" stroke-width="1" opacity="0.55"/>
<rect x="403" y="294" width="20" height="20" fill="#D07A52"/>
<rect x="405" y="296" width="16" height="16" fill="none" stroke="#F4B48F" stroke-width="1" opacity="0.55"/>
<rect x="347" y="322" width="20" height="20" fill="#D07A52"/>
<rect x="349" y="324" width="16" height="16" fill="none" stroke="#F4B48F" stroke-width="1" opacity="0.55"/>
<rect x="347" y="350" width="20" height="20" fill="#D07A52"/>
<rect x="349" y="352" width="16" height="16" fill="none" stroke="#F4B48F" stroke-width="1" opacity="0.55"/>
<rect x="347" y="378" width="20" height="20" fill="#D07A52"/>
<rect x="349" y="380" width="16" height="16" fill="none" stroke="#F4B48F" stroke-width="1" opacity="0.55"/>
<rect x="347" y="406" width="20" height="20" fill="#D07A52"/>
<rect x="349" y="408" width="16" height="16" fill="none" stroke="#F4B48F" stroke-width="1" opacity="0.55"/>
<rect x="347" y="434" width="20" height="20" fill="#D07A52"/>
<rect x="349" y="436" width="16" height="16" fill="none" stroke="#F4B48F" stroke-width="1" opacity="0.55"/>
<rect x="291" y="462" width="20" height="20" fill="#D07A52"/>
<rect x="293" y="464" width="16" height="16" fill="none" stroke="#F4B48F" stroke-width="1" opacity="0.55"/>
<rect x="319" y="462" width="20" height="20" fill="#D07A52"/>
<rect x="321" y="464" width="16" height="16" fill="none" stroke="#F4B48F" stroke-width="1" opacity="0.55"/>
<rect x="347" y="462" width="20" height="20" fill="#D07A52"/>
<rect x="349" y="464" width="16" height="16" fill="none" stroke="#F4B48F" stroke-width="1" opacity="0.55"/>
<rect x="375" y="462" width="20" height="20" fill="#D07A52"/>
<rect x="377" y="464" width="16" height="16" fill="none" stroke="#F4B48F" stroke-width="1" opacity="0.55"/>
<rect x="403" y="462" width="20" height="20" fill="#D07A52"/>
<rect x="405" y="464" width="16" height="16" fill="none" stroke="#F4B48F" stroke-width="1" opacity="0.55"/>
<rect x="449" y="294" width="20" height="20" fill="#D07A52"/>
<rect x="451" y="296" width="16" height="16" fill="none" stroke="#F4B48F" stroke-width="1" opacity="0.55"/>
<rect x="477" y="294" width="20" height="20" fill="#D07A52"/>
<rect x="479" y="296" width="16" height="16" fill="none" stroke="#F4B48F" stroke-width="1" opacity="0.55"/>
<rect x="505" y="294" width="20" height="20" fill="#D07A52"/>
<rect x="507" y="296" width="16" height="16" fill="none" stroke="#F4B48F" stroke-width="1" opacity="0.55"/>
<rect x="533" y="294" width="20" height="20" fill="#D07A52"/>
<rect x="535" y="296" width="16" height="16" fill="none" stroke="#F4B48F" stroke-width="1" opacity="0.55"/>
<rect x="561" y="294" width="20" height="20" fill="#D07A52"/>
<rect x="563" y="296" width="16" height="16" fill="none" stroke="#F4B48F" stroke-width="1" opacity="0.55"/>
<rect x="505" y="322" width="20" height="20" fill="#D07A52"/>
<rect x="507" y="324" width="16" height="16" fill="none" stroke="#F4B48F" stroke-width="1" opacity="0.55"/>
<rect x="505" y="350" width="20" height="20" fill="#D07A52"/>
<rect x="507" y="352" width="16" height="16" fill="none" stroke="#F4B48F" stroke-width="1" opacity="0.55"/>
<rect x="505" y="378" width="20" height="20" fill="#D07A52"/>
<rect x="507" y="380" width="16" height="16" fill="none" stroke="#F4B48F" stroke-width="1" opacity="0.55"/>
<rect x="505" y="406" width="20" height="20" fill="#D07A52"/>
<rect x="507" y="408" width="16" height="16" fill="none" stroke="#F4B48F" stroke-width="1" opacity="0.55"/>
<rect x="505" y="434" width="20" height="20" fill="#D07A52"/>
<rect x="507" y="436" width="16" height="16" fill="none" stroke="#F4B48F" stroke-width="1" opacity="0.55"/>
<rect x="505" y="462" width="20" height="20" fill="#D07A52"/>
<rect x="507" y="464" width="16" height="16" fill="none" stroke="#F4B48F" stroke-width="1" opacity="0.55"/>
</svg>